<svg width="612" height="792" viewBox="0 0 612 792" fill="none" xmlns="http://www.w3.org/2000/svg">
<rect width="612" height="792" fill="white"/>
<path d="M358.732 356.642C344.543 364.376 344.061 377.911 345.594 383.712C343.623 375.978 353.877 364.46 369.899 359.22C383.695 354.708 393.329 348.908 396.833 345.685C403.402 341.173 409.052 328.154 405.373 314.748C401.694 301.342 391.359 280.803 386.322 272.21L374.498 246.429C366.089 222.71 375.812 199.594 381.724 191C362.673 198.734 355.447 223.226 356.104 242.562C356.63 258.03 365.52 278.655 369.899 287.034C372.965 293.694 380.016 309.334 383.695 318.615C387.373 327.896 383.914 336.232 381.724 339.24C379.972 341.818 374.498 348.048 358.732 356.642Z" fill="#E26B1D"/>
<path d="M320.631 360.512C313.799 369.793 319.974 385.648 324.573 391.449C317.215 375.981 325.886 367.602 331.799 362.446C334.864 360.082 343.098 353.68 351.506 346.977C359.915 340.274 358.513 331.294 356.761 327.642C355.01 323.345 349.01 311.271 339.025 297.349C329.04 283.427 330.485 270.064 332.456 265.123C321.945 270.795 322.602 288.326 326.543 297.349C330.485 306.372 339.682 320.423 342.309 327.642C344.937 334.86 342.309 339.243 337.711 343.11C334.426 345.688 327.463 351.231 320.631 360.512Z" fill="#E26B1D"/>
<path d="M469.094 468.157C478.072 466.868 497.604 466.224 503.91 473.958C510.216 481.692 507.852 488.782 505.881 491.36C502.596 496.302 490.115 507.087 466.466 510.696L458.583 560.969C457.488 568.273 449.517 584.171 426.394 589.327C407.343 593.839 360.834 602.218 327.2 599.64C306.617 598.565 261.64 594.354 246.399 586.104C231.159 577.855 227.349 566.769 226.035 560.324L217.495 509.407C199.759 506.829 181.146 496.516 180.708 487.493C180.051 473.958 190.562 461.067 219.466 470.735C237.202 477.181 285.946 489.556 339.024 487.493C405.373 484.915 436.905 481.692 469.094 468.157ZM496.028 485.561C499.181 480.404 492.087 478.472 483.547 479.116L471.065 479.76L469.095 498.451C476.759 496.303 492.875 490.717 496.028 485.561ZM214.869 479.756C207.424 478.896 192.534 476.506 192.534 484.268C192.534 490.713 208.081 495.225 215.526 497.158L214.869 479.756Z" fill="#E26B1D"/>
<path d="M331.799 424.962C267.685 423.93 231.51 444.297 221.438 454.61C220.562 462.559 243.116 477.168 342.31 477.168C441.115 477.168 462.525 461.055 462.525 454.61C448.336 432.954 387.418 425.821 358.733 424.962C365.565 419.29 364.207 411.427 362.674 408.204C359.609 402.403 350.193 392.607 337.055 399.825C323.916 407.044 328.077 419.591 331.799 424.962Z" fill="#E26B1D"/>
<path d="M436.904 408.847L377.782 368.887C367.797 371.98 361.797 380.918 359.389 385C383.913 396.816 435.853 422.124 447.415 428.827C458.977 435.53 464.057 436.347 465.152 435.917C470.407 434.37 466.904 430.546 464.495 428.827L436.904 408.847Z" fill="#0B6898"/>
<path d="M278.589 305.078C272.677 301.211 267.421 304.433 262.823 307.656L203.701 350.839L110.419 423.67C101.222 431.404 103.85 435.271 106.477 435.271H131.44C137.352 435.271 138.666 435.915 138.666 439.782V477.809L139.98 552.574C144.184 581.964 175.453 588.452 190.562 588.022H228.663C222.882 584.413 214.43 572.339 210.927 566.753L182.679 565.464C164.811 565.464 160.782 547.847 161.001 539.039L159.687 424.959C159.687 417.225 161.658 414.646 164.943 411.424L231.291 359.218L266.107 332.792C272.677 326.992 274.209 329.999 276.618 331.503L308.15 353.417C311.829 345.682 321.069 338.163 325.23 335.37L278.589 305.078Z" fill="#0B6898"/>
<rect x="252.971" y="368.887" width="15.7659" height="15.4685" rx="1" fill="#0B6898"/>
<rect x="277.932" y="368.887" width="15.7659" height="15.4685" rx="1" fill="#0B6898"/>
<rect x="252.971" y="392.082" width="15.7659" height="15.4685" rx="1" fill="#0B6898"/>
<rect x="277.932" y="392.082" width="15.7659" height="15.4685" rx="1" fill="#0B6898"/>
</svg>
