<svg width="612" height="792" viewBox="0 0 612 792" fill="none" xmlns="http://www.w3.org/2000/svg">
<rect width="612" height="792" fill="white"/>
<path fill-rule="evenodd" clip-rule="evenodd" d="M387.157 370.216C390.397 369.568 400.117 368.919 407.893 369.567C415.668 370.215 419.557 374.751 420.853 379.935C421.889 384.082 419.124 389.007 417.612 390.951C415.236 393.975 407.893 400.152 397.525 400.671V411.039H383.27V373.455C383.486 372.591 384.566 370.734 387.157 370.216ZM407.245 385.119C408.541 379.935 402.061 379.287 396.877 380.583V390.951C399.901 390.735 406.208 389.266 407.245 385.119Z" fill="#0B6898"/>
<path d="M337.02 370.977H307.98C306.396 370.977 306 370.977 306 371.616V381.845C306 382.868 307.32 383.124 307.98 383.124H313.26C314.844 383.124 315.24 383.977 315.24 384.403C315.02 392.075 314.58 407.675 314.58 408.698C314.58 409.721 315.46 409.977 315.9 409.977H327.12C328.44 409.977 329.1 408.911 329.1 408.059V384.403C329.1 383.38 329.54 383.124 329.76 383.124H337.02C338.604 383.124 339 381.845 339 381.206V372.255C339 371.232 337.68 370.977 337.02 370.977Z" fill="#0B6898"/>
<path d="M337.08 421.977H308.92C307.384 421.977 307 421.977 307 422.665V433.681C307 434.783 308.28 435.059 308.92 435.059H314.04C315.576 435.059 315.96 435.977 315.96 436.436C315.747 444.698 315.32 461.498 315.32 462.6C315.32 463.701 316.173 463.977 316.6 463.977H327.48C328.76 463.977 329.4 462.829 329.4 461.911V436.436C329.4 435.334 329.827 435.059 330.04 435.059H337.08C338.616 435.059 339 433.681 339 432.993V423.354C339 422.252 337.72 421.977 337.08 421.977Z" fill="#E26B1D"/>
<path d="M390.647 420.977H381.588C379.518 420.977 379 422.52 379 422.96V460.654C379 461.712 379.863 461.977 380.294 461.977H390C391.553 461.977 391.941 460.654 391.941 459.993V442.138C391.941 441.08 392.373 441.697 392.588 442.138L397.765 454.041C398.412 455.364 398.627 455.364 399.059 455.364H402.294C402.812 455.364 403.373 454.482 403.588 454.041L409.412 442.138C409.929 441.08 410.059 442.138 410.059 442.799V459.993C410.059 461.315 410.059 461.977 411.353 461.977H421.706C422.741 461.977 423 461.095 423 460.654V422.96C423 421.373 421.706 420.977 421.059 420.977H411.353C409.8 420.977 408.765 420.977 408.118 422.299L401 436.848C401 436.848 400.715 437.629 400.353 436.848C398.412 432.659 393.753 423.357 393.235 422.299C392.718 421.241 391.51 420.977 390.647 420.977Z" fill="#E26B1D"/>
<path fill-rule="evenodd" clip-rule="evenodd" d="M358.208 369.086C374.845 367.623 377.658 385.169 377.437 395.96V407.758C377.437 409.388 377.04 409.068 375.451 409.068C373.861 409.068 368.805 409.069 366.156 409.069C364.831 409.069 364.83 408.92 364.83 407.758V404.48C364.83 404.043 364.566 403.17 363.506 403.17H356.884C356.443 403.17 355.559 403.432 355.559 404.48V407.758C355.559 408.195 355.162 409.069 353.573 409.069H343.639C343.248 409.07 342.436 408.808 342.314 407.759C340.769 395.742 341.715 370.536 358.208 369.086ZM364.477 392.896C364.477 388.792 363.57 380.713 359.941 381.231C355.405 381.88 355.405 392.248 355.405 392.896C355.351 394.451 356.246 394.839 356.701 394.839H363.181C364.218 394.839 364.477 393.543 364.477 392.896Z" fill="#0B6898"/>
<path fill-rule="evenodd" clip-rule="evenodd" d="M443.75 420.844C460.387 419.381 463.2 436.927 462.98 447.718V459.517C462.98 461.147 462.582 460.827 460.993 460.827H451.698C450.373 460.827 450.373 460.678 450.373 459.517V456.239C450.373 455.802 450.109 454.928 449.049 454.928H442.426C441.985 454.928 441.102 455.191 441.102 456.239V459.517C441.102 459.954 440.705 460.827 439.116 460.827H429.182C428.791 460.828 427.979 460.566 427.857 459.517C426.312 447.5 427.258 422.294 443.75 420.844ZM450.02 444.654C450.02 440.55 449.112 432.472 445.484 432.99C440.948 433.638 440.948 444.006 440.948 444.654C440.894 446.21 441.789 446.597 442.244 446.597H448.724C449.76 446.596 450.02 445.302 450.02 444.654Z" fill="#E26B1D"/>
<path fill-rule="evenodd" clip-rule="evenodd" d="M355.623 422.141C372.26 420.678 375.074 438.224 374.853 449.015V460.813C374.853 462.444 374.455 462.124 372.866 462.124H363.571C362.247 462.124 362.247 461.975 362.247 460.813V457.536C362.247 457.099 361.982 456.226 360.922 456.226H354.299C353.858 456.226 352.975 456.488 352.975 457.536V460.813C352.975 461.25 352.578 462.124 350.989 462.124H341.055C340.665 462.124 339.852 461.863 339.73 460.814C338.185 448.798 339.13 423.591 355.623 422.141ZM361.893 445.951C361.893 441.847 360.985 433.769 357.357 434.287C352.821 434.935 352.821 445.303 352.821 445.951C352.767 447.507 353.662 447.894 354.117 447.894H360.597C361.633 447.893 361.893 446.599 361.893 445.951Z" fill="#E26B1D"/>
<path d="M225.503 378.457C219.125 381.933 218.908 388.017 219.597 390.625C218.712 387.148 223.321 381.971 230.523 379.616C236.724 377.588 241.055 374.98 242.63 373.532C245.582 371.504 248.122 365.651 246.468 359.625C244.815 353.599 240.169 344.367 237.905 340.504L232.59 328.915C228.81 318.254 233.18 307.863 235.838 304C227.275 307.477 224.027 318.486 224.322 327.177C224.558 334.13 228.554 343.401 230.523 347.168C231.901 350.161 235.07 357.192 236.724 361.364C238.377 365.535 236.822 369.282 235.838 370.634C235.051 371.793 232.59 374.594 225.503 378.457Z" fill="#E26B1D"/>
<path d="M208.377 380.196C205.306 384.368 208.081 391.495 210.148 394.102C206.841 387.149 210.739 383.383 213.396 381.065C214.774 380.003 218.475 377.125 222.255 374.112C226.035 371.099 225.405 367.062 224.617 365.421C223.83 363.489 221.133 358.062 216.645 351.804C212.156 345.546 212.806 339.54 213.692 337.318C208.967 339.868 209.262 347.748 211.034 351.804C212.806 355.86 216.94 362.176 218.121 365.421C219.302 368.666 218.121 370.636 216.054 372.374C214.578 373.533 211.448 376.024 208.377 380.196Z" fill="#E26B1D"/>
<path fill-rule="evenodd" clip-rule="evenodd" d="M275.111 428.583C279.147 428.003 287.927 427.713 290.761 431.19C293.596 434.666 292.533 437.853 291.647 439.012C290.171 441.233 284.56 446.081 273.929 447.704L270.386 470.301C269.894 473.585 266.312 480.732 255.918 483.049C247.354 485.077 226.447 488.843 211.329 487.684C202.076 487.201 181.86 485.308 175.01 481.6C168.159 477.892 166.446 472.909 165.855 470.012L162.016 447.125C154.044 445.965 145.677 441.33 145.48 437.274C145.185 431.19 149.91 425.396 162.902 429.742C170.875 432.639 192.785 438.201 216.644 437.274C246.468 436.115 260.642 434.667 275.111 428.583ZM287.219 436.406C288.636 434.088 285.447 433.22 281.608 433.509L275.998 433.798L275.112 442.201C278.557 441.235 285.801 438.724 287.219 436.406ZM160.837 433.796C157.49 433.41 150.797 432.336 150.797 435.824C150.797 438.721 157.785 440.75 161.132 441.619L160.837 433.796Z" fill="#E26B1D"/>
<path d="M213.397 409.167C184.577 408.703 168.316 417.858 163.789 422.494C163.395 426.067 173.533 432.633 218.121 432.633C262.535 432.633 272.158 425.391 272.158 422.494C265.78 412.759 238.398 409.553 225.503 409.167C228.574 406.617 227.964 403.083 227.275 401.634C225.897 399.027 221.665 394.623 215.759 397.868C209.853 401.113 211.723 406.752 213.397 409.167Z" fill="#E26B1D"/>
<path d="M260.642 401.923L234.066 383.961C229.578 385.352 226.881 389.369 225.798 391.204C236.822 396.515 260.17 407.891 265.367 410.904C270.564 413.917 272.847 414.284 273.339 414.091C275.702 413.396 274.127 411.677 273.044 410.904L260.642 401.923Z" fill="#0B6898"/>
<path d="M189.478 355.279C186.821 353.541 184.459 354.989 182.392 356.438L155.816 375.848L113.885 408.586C109.751 412.063 110.932 413.801 112.114 413.801H123.334C125.992 413.801 126.583 414.091 126.583 415.829V432.922L127.173 466.529C129.063 479.74 143.119 482.657 149.91 482.464H167.037C164.438 480.841 160.639 475.414 159.064 472.903L146.367 472.324C138.335 472.324 136.524 464.405 136.622 460.445L136.032 409.166C136.032 405.689 136.918 404.53 138.394 403.082L168.218 379.615L183.868 367.737C186.821 365.129 187.51 366.481 188.593 367.157L202.766 377.007C204.42 373.531 208.573 370.151 210.444 368.895L189.478 355.279Z" fill="#0B6898"/>
<rect x="177.963" y="383.961" width="7.08685" height="6.95316" rx="1" fill="#0B6898"/>
<rect x="189.183" y="383.961" width="7.08685" height="6.95316" rx="1" fill="#0B6898"/>
<rect x="177.963" y="394.387" width="7.08685" height="6.95316" rx="1" fill="#0B6898"/>
<rect x="189.183" y="394.387" width="7.08685" height="6.95316" rx="1" fill="#0B6898"/>
<path fill-rule="evenodd" clip-rule="evenodd" d="M472.454 425.86C473.899 424.404 479.098 420.616 488.341 421.004C497.584 421.393 502.785 428.935 504.229 432.658C505.352 435.733 506.828 443.63 503.747 450.622C502.57 453.292 499.896 455.478 498.451 456.934C497.008 458.39 504.229 458.877 507.118 459.847C510.346 460.932 503.748 466.158 502.784 466.644C501.822 467.13 499.896 468.586 492.674 465.673C486.898 463.343 487.86 463.732 484.972 462.275C484.009 461.79 483.335 461.206 480.639 460.818C477.269 460.332 470.047 457.905 467.64 451.108C465.714 445.67 465.875 440.749 466.196 438.969C466.356 436.541 467.448 430.521 472.454 425.86ZM485.935 430.715C481.681 430.715 478.232 435.498 478.232 441.397C478.232 447.296 481.681 452.078 485.935 452.078C490.189 452.077 493.637 447.296 493.637 441.397C493.637 435.498 490.189 430.715 485.935 430.715Z" fill="#E4650F"/>
</svg>
